<?xml version="1.0" encoding="utf-8"?>
<!-- Generator: Adobe Illustrator 23.0.1, SVG Export Plug-In . SVG Version: 6.00 Build 0)  -->
<svg version="1.1" id="Calque_1" xmlns="http://www.w3.org/2000/svg" xmlns:xlink="http://www.w3.org/1999/xlink" x="0px" y="0px"
	 viewBox="0 0 600 250" style="enable-background:new 0 0 600 250;" xml:space="preserve">
<style type="text/css">
	.st0{fill:#FFFFFF;}
</style>
<g>
	<path class="st0" d="M404.7,77.1c0-4.1-3.4-7.5-7.5-7.5c-4.2,0-7.5,3.4-7.5,7.5s3.4,7.5,7.5,7.5C401.3,84.6,404.7,81.2,404.7,77.1z
		"/>
</g>
<g>
	<path class="st0" d="M405.9,105.6l0,56.7c-1.6,0.4-3.8,0.5-6.6,0.5c-2.9,0-5.1-0.2-6.6-0.5v-51c0-2.5-0.4-4.3-1.3-5.4
		c-0.9-1.1-2.4-1.7-4.6-1.7h-1.5c0-2.8,0-9.5,0-9.5l0.9-0.8c0,0,4.8,0,7.3,0l1.8,0c3.3,0,6.3-0.2,8.2,1.9
		C405.3,98,405.9,100,405.9,105.6z"/>
</g>
<g>
	<path class="st0" d="M244.4,156.8v5.6c1.7,0.4,4,0.5,6.8,0.5c2.8,0,5-0.2,6.6-0.5v-10L244.4,156.8z"/>
</g>
<g>
	<path class="st0" d="M257.8,145.6v-31.3c5.1-5.9,10.3-8.8,15.6-8.8c2.9,0,5.1,1.1,6.5,3.2c1.4,2.1,2.1,5.6,2.1,10.4v18.4l13.2-4.4
		v-18.7c2.5-2.9,5-5.1,7.5-6.6c0.1,0,0.1-0.1,0.2-0.1c2.6-1.5,5.2-2.2,7.9-2.2c2.9,0,5.1,1.1,6.4,3.2c1.4,2.1,2.1,5.6,2.1,10.4v5.9
		l13.2-4.4v-3.7l0.1-2.1c0-0.2,0-0.3,0-0.5c5-5.9,10.2-8.8,15.6-8.8c2.9,0,5.1,1,6.5,3.1c0.7,1,1.2,2.4,1.5,4l13.1-4.4
		c-0.7-3.3-2-6.3-3.8-8.8c-3-4-7.3-6-13-6c-7.4,0-14.8,3.4-22,10.1c-0.6-1.5-1.4-2.8-2.3-4.1c-2-2.7-4.6-4.5-7.8-5.4
		c-0.1,0-0.2-0.1-0.3-0.1c-0.6-0.2-1.2-0.3-1.9-0.4c-0.2,0-0.4-0.1-0.6-0.1c-0.8-0.1-1.5-0.1-2.4-0.1c0,0,0,0-0.1,0c0,0,0,0,0,0
		c0,0,0,0,0,0c-0.1,0-0.2,0-0.4,0c-0.8,0-1.6,0.1-2.4,0.1c-0.4,0-0.7,0.1-1.1,0.2c-0.5,0.1-1.1,0.2-1.6,0.3
		c-5.6,1.2-11.2,4.4-16.7,9.6c-2.9-6.8-8-10.2-15.3-10.2s-13.9,3.1-20,9.3c-0.3-5.8-2.8-8.7-7.4-8.7h-5l-1,1v55L257.8,145.6z"/>
</g>
<g>
	<path class="st0" d="M281.9,144.2v18.1c1.6,0.4,3.8,0.5,6.6,0.5c2.8,0,5.1-0.2,6.6-0.5v-22.6L281.9,144.2z"/>
</g>
<g>
	<path class="st0" d="M319.3,131.7v30.6c1.6,0.4,3.8,0.5,6.6,0.5c2.8,0,5.1-0.2,6.6-0.5v-35.1L319.3,131.7z"/>
</g>
<g>
	<path class="st0" d="M370.1,114.8c0,0,0-0.1,0-0.1l-13.2,4.4v35.7c0,5.7,2.3,8.5,7,8.5c3.4,0,6.2-1,8.4-2.9
		c-1.5-2.8-2.2-6.9-2.2-12.2V114.8z"/>
</g>
<g>
	<path class="st0" d="M112.8,132.9c0.5,11.4,4.3,19.6,15.9,19.6c6.9,0,13.3-2.2,19.1-5.2c2.3,2.2,4,6.2,4.5,9.1
		c-6.6,4.7-16.2,7.7-25.8,7.7c-21.7,0-28.3-17-28.3-35.6c0-20.5,9.6-35.9,28.7-35.9c17.7,0,27.2,13,27.2,29.4c0,4.4-0.3,7-1,10.9
		H112.8z M112.8,122.6h27.7v-1.8c0-9.6-3.8-17.6-13.7-17.6C118,103.2,113.5,110.5,112.8,122.6z"/>
</g>
<g>
	<path class="st0" d="M194.3,93.3c5.6,0,10.9,1.9,15.5,4.5V62.1l1-0.8h5.4c5.9,0,7.6,2.7,7.6,9.1v72.5c0,5.4,1,10.4,3.8,13
		c-0.7,2.6-3,5.9-5.2,7.3c-5.5-1-8.9-4.1-10.9-8.5c-4.7,5.4-11.7,9.3-19.9,9.3c-15.7,0-23.6-14.3-23.6-34.9
		C167.9,104.7,181.1,93.3,194.3,93.3z M209.8,143.6v-34.1c-4.3-2.7-8.9-4.9-13.6-4.9c-7.7,0-13.9,8-13.9,24.7
		c0,16.3,5.9,22.9,12.5,22.9C199.6,152.2,205.6,149.6,209.8,143.6z"/>
</g>
<g>
	<path class="st0" d="M479.8,147.7c0,4.8,0.5,9.2,2.3,12.5c-2.1,1.6-5.5,3-8.9,3c-5.6,0-7.6-3.2-7.6-9.1v-34.9
		c0-9.2-1.9-13.2-8.5-13.2c-5.5,0-12.5,3.2-17.3,8.5v47.7c-1.9,0.4-4.5,0.5-7,0.5c-2.6,0-5.1-0.1-7.1-0.5V94.7l0.8-0.8h5.4
		c5.4,0,7.6,3.2,7.8,8.5c5.9-5.4,13.6-9.2,21.8-9.2c12.9,0,18.3,9.9,18.3,22.5V147.7z"/>
</g>
<g>
	<path class="st0" d="M510.6,132.9c0.5,11.4,4.3,19.6,15.9,19.6c6.9,0,13.3-2.2,19.1-5.2c2.3,2.2,4,6.2,4.5,9.1
		c-6.6,4.7-16.2,7.7-25.8,7.7c-21.7,0-28.3-17-28.3-35.6c0-20.5,9.6-35.9,28.7-35.9c17.7,0,27.2,13,27.2,29.4c0,4.4-0.3,7-1,10.9
		H510.6z M510.6,122.6h27.7v-1.8c0-9.6-3.8-17.6-13.7-17.6C515.8,103.2,511.3,110.5,510.6,122.6z"/>
</g>
<g>
	<path class="st0" d="M397.5,201.3c-1.9,0-3.8-0.4-5.4-1v-21l0.2-0.2h1.2c1.3,0,1.7,0.6,1.7,2v6.5c1-0.8,2.3-1.5,3.9-1.5
		c3.4,0,5.2,3.1,5.2,7.4C404.3,198.8,401.2,201.3,397.5,201.3z M395.1,190.4v8.3c0.7,0.2,1.5,0.4,2.5,0.4c2.1,0,3.5-1.8,3.5-5.5
		c0-3.5-1.2-4.9-2.7-4.9C397.2,188.7,396,189.4,395.1,190.4z"/>
	<path class="st0" d="M416.7,200.6c-1.3,4.5-2.7,7-6.7,7c-0.9,0-2.2-0.2-2.9-0.5c-0.1-0.7,0.3-1.7,0.7-2.2c0.5,0.2,1.4,0.4,2.2,0.4
		c2,0,2.9-1.4,3.6-3.7l0.1-0.4c-1.2,0-1.9-0.4-2.3-1.6l-3.9-13.1c0.7-0.3,1.4-0.4,1.9-0.4c0.7,0,1.3,0.3,1.6,1.4l2,6.9
		c0.4,1.4,0.8,3.3,1.1,4.4c0.1,0.2,0.1,0.2,0.3,0.2l3.3-12.6c0.4-0.1,0.9-0.1,1.3-0.1c0.6,0,1.1,0.1,1.6,0.2l0.1,0.2L416.7,200.6z"
		/>
	<path class="st0" d="M442.7,199.9c-1.1,1.1-2.6,1.6-4.3,1.6s-3.2-0.5-4.3-1.6c-1.6-1.6-2.1-3.6-2.1-6.1c0-2.4,0.5-4.5,2.1-6.1
		c1.1-1.1,2.6-1.6,4.3-1.6s3.2,0.5,4.3,1.6c1.6,1.6,2.1,3.7,2.1,6.1C444.8,196.2,444.3,198.3,442.7,199.9z M438.4,199.1
		c2.6,0,3.3-2.6,3.3-5.4c0-2.7-0.7-5.4-3.3-5.4s-3.3,2.7-3.3,5.4C435.1,196.5,435.8,199.1,438.4,199.1z"/>
	<path class="st0" d="M456.4,201.4c-1.3,0-2.4-0.4-3.4-1v5.2c0,1.4-0.4,2-1.7,2h-1.2l-0.2-0.2v-20.9l0.2-0.2h1c1,0,1.6,0.6,1.8,1.5
		c1-1,2.4-1.8,4.1-1.8c3.4,0,5.1,3.1,5.1,7.6C462.1,198.9,459.3,201.4,456.4,201.4z M453,190.5v7.3c0.9,0.6,1.9,1.1,3,1.1
		c1.7,0,3-1.7,3-5.3c0-3.6-1.3-5-2.7-5C455.2,188.6,453.9,189.2,453,190.5z"/>
	<path class="st0" d="M469.4,194.7c0.1,2.5,0.9,4.3,3.5,4.3c1.5,0,2.9-0.5,4.2-1.1c0.5,0.5,0.9,1.3,1,2c-1.4,1-3.5,1.7-5.6,1.7
		c-4.7,0-6.2-3.7-6.2-7.7c0-4.5,2.1-7.8,6.2-7.8c3.9,0,5.9,2.8,5.9,6.4c0,1-0.1,1.5-0.2,2.4H469.4z M469.4,192.5h6v-0.4
		c0-2.1-0.8-3.8-3-3.8C470.6,188.3,469.6,189.8,469.4,192.5z"/>
	<path class="st0" d="M495.5,197.9c0,1,0.1,2,0.5,2.7c-0.4,0.4-1.2,0.7-1.9,0.7c-1.2,0-1.6-0.7-1.6-2v-7.6c0-2-0.4-2.9-1.9-2.9
		c-1.2,0-2.7,0.7-3.8,1.9v10.4c-0.4,0.1-1,0.1-1.5,0.1c-0.6,0-1.1,0-1.6-0.1v-14.7l0.2-0.2h1.2c1.2,0,1.6,0.7,1.7,1.9
		c1.3-1.2,3-2,4.8-2c2.8,0,4,2.2,4,4.9V197.9z"/>
	<path class="st0" d="M505,201.1c-0.4,0.1-1,0.1-1.5,0.1c-0.6,0-1.1,0-1.6-0.1v-10.9c0-1.1-0.3-1.6-1.3-1.6h-0.3
		c-0.1-0.4-0.1-0.7-0.1-1.1c0-0.4,0.1-0.7,0.1-1.1c0.7-0.1,1.5-0.1,1.9-0.1h0.4c1.5,0,2.4,1,2.4,2.7V201.1z M501.3,180.9
		c0.4-0.2,1-0.4,1.6-0.4c0.5,0,1.3,0.1,1.6,0.4c0.2,0.4,0.3,0.9,0.3,1.3c0,0.4-0.1,1-0.3,1.3c-0.3,0.2-1.1,0.4-1.6,0.4
		c-0.6,0-1.3-0.1-1.6-0.4c-0.2-0.4-0.3-0.9-0.3-1.3C501,181.8,501.1,181.3,501.3,180.9z"/>
	<path class="st0" d="M511,189.5c0-1-0.1-2-0.5-2.7c0.4-0.4,1.2-0.7,1.9-0.7c1.2,0,1.6,0.7,1.6,1.9v7.6c0,2,0.4,2.9,1.9,2.9
		c1.2,0,2.7-0.7,3.7-1.8v-10.4c0.4-0.1,1-0.1,1.6-0.1c0.5,0,1.1,0.1,1.6,0.1v10.6c0,1.2,0.2,2.2,0.8,2.8c-0.2,0.6-0.7,1.3-1.2,1.6
		c-1.3-0.2-2.1-1-2.5-2.2c-1.3,1.3-3.1,2.2-5,2.2c-2.8,0-3.9-2.2-3.9-4.9V189.5z"/>
	<path class="st0" d="M535.3,188.9c-1,0-2.3,0.7-3.2,1.8v10.4c-0.4,0.1-1,0.1-1.5,0.1c-0.6,0-1.1,0-1.6-0.1v-14.7l0.2-0.2h1.2
		c1.2,0,1.6,0.7,1.7,1.9c1.2-1.2,2.7-2,4.2-2c1.7,0,2.8,0.9,3.4,2.2c1.4-1.3,3-2.2,4.8-2.2c2.6,0,3.9,2.1,3.9,4.7v7.2
		c0,1,0.1,2,0.5,2.7c-0.4,0.4-1.2,0.7-1.9,0.7c-1.2,0-1.6-0.7-1.6-2v-7.6c0-2.1-0.6-2.8-1.8-2.8c-1,0-2.2,0.7-3.2,1.8v0v10.4
		c-0.4,0.1-1,0.1-1.5,0.1c-0.6,0-1.1,0-1.6-0.1v-9.4C537.1,189.7,536.5,188.9,535.3,188.9z"/>
</g>
<g>
	<path class="st0" d="M65.7,114.6c4.8-5.4,11.8-8.5,17.3-8.5c1.5,0,2.7,0.2,3.7,0.6c1.9-3.9,3.1-9.8,3.2-13.4
		c-0.8-0.1-1.6-0.1-2.5-0.1c-8.2,0-15.9,3.8-21.8,9.2c-0.3-5.4-2.5-8.5-7.8-8.5h-5.4l-0.8,0.8v67.6c2.1,0.4,4.5,0.5,7.1,0.5
		c2.5,0,5.1-0.1,7-0.5V114.6z"/>
</g>
</svg>
